<svg width="499" height="503" viewBox="0 0 499 503" fill="none" xmlns="http://www.w3.org/2000/svg">
<g clip-path="url(#clip0_117_147)">
<path d="M429.508 420.054C419.531 430.571 410.093 437.355 402.635 442.713C314.972 505.706 211.242 487.344 189.196 482.859C156.641 476.238 93.7153 463.438 48.2204 409.859C-20.6095 328.798 -9.89146 201.087 43.4967 116.784C53.2617 101.362 104.847 15.7754 209.693 2.04987C273.146 -6.25631 347.11 10.497 400.673 55.4372C513.11 149.775 505.104 340.351 429.508 420.054Z" fill="url(#paint0_linear_117_147)"/>
<path d="M290.144 231.91C302.485 202.027 323.388 179.13 346.906 166.599C367.93 155.397 383.993 136.57 391.278 113.89C392.043 111.505 392.915 109.123 393.895 106.751C408.737 70.8113 442.756 50.7843 469.88 62.0188C497.004 73.2534 506.96 111.494 492.117 147.434C489.083 154.782 485.246 161.465 480.829 167.349C466.736 186.129 459.857 209.484 462.467 232.84C464.799 253.713 461.721 276.743 452.471 299.147C438.672 332.562 414.167 357.243 387.271 368.463C377.098 372.708 367.733 378.771 359.759 386.375C346.507 399.013 328.922 404.013 313.695 397.704C297.268 390.9 288.18 372.842 289.129 352.731C289.666 341.35 287.958 330.011 284.527 319.14C276.422 293.473 277.666 262.123 290.144 231.91Z" fill="#8BA1D1"/>
<path d="M444.594 96.3173C431.242 118.602 418.614 141.297 406.225 164.126C403.126 169.831 400.117 175.587 397.09 181.331L392.552 189.95L388.087 198.607C385.132 204.39 382.096 210.131 379.206 215.948L370.535 233.395C364.903 245.1 359.172 256.758 353.757 268.567C351.043 274.467 348.212 280.315 345.617 286.271L337.749 304.1C327.498 327.977 317.841 352.122 309.425 376.71L310.479 377.084L317.477 358.928L319.215 354.387L321.067 349.89L324.789 340.902L328.493 331.909C329.722 328.91 331.061 325.955 332.341 322.976C334.938 317.034 337.491 311.072 340.126 305.148C350.826 281.519 361.838 258.032 373.332 234.775C379.168 223.191 384.906 211.557 390.823 200.013L395.236 191.344L399.723 182.711C402.711 176.953 405.698 171.196 408.745 165.469C414.739 153.963 420.815 142.499 426.984 131.086C433.094 119.64 439.312 108.248 445.565 96.8813L444.594 96.3173Z" fill="#BDD0FB"/>
<g opacity="0.5">
<path d="M464.406 171.677C464.678 171.677 464.947 171.559 465.133 171.333C487.439 144.2 489.013 120.938 486.405 106.2C483.573 90.1894 475.548 80.7624 475.207 80.3684C474.866 79.9743 474.272 79.9309 473.878 80.2726C473.485 80.6142 473.441 81.2089 473.781 81.603C473.862 81.697 481.845 91.0986 484.566 106.628C487.076 120.954 485.49 143.6 463.676 170.135C463.346 170.538 463.404 171.133 463.805 171.463C463.983 171.606 464.194 171.677 464.406 171.677Z" fill="#BDD0FB"/>
</g>
<path d="M329.787 302.327C344.586 285.913 363.288 275.957 381.291 273.274C397.382 270.875 412.037 262.43 421.932 249.496C422.972 248.137 424.08 246.803 425.255 245.499C443.054 225.76 469.532 220.653 484.392 234.093C499.253 247.533 496.87 274.431 479.071 294.169C475.432 298.205 471.429 301.629 467.237 304.406C453.861 313.27 444.074 326.73 440.385 342.363C437.089 356.334 429.822 370.455 418.725 382.76C402.176 401.113 380.747 411.393 360.876 412.46C353.36 412.863 345.945 414.624 339.07 417.695C327.646 422.798 315.19 421.992 306.847 414.445C297.848 406.305 296.151 392.601 301.382 379.87C304.34 372.666 305.847 364.975 306.138 357.191C306.822 338.818 314.824 318.921 329.787 302.327Z" fill="#8BA1D1"/>
<path d="M460.251 250.386C446.545 261.676 433.212 273.397 420.001 285.257C416.698 288.22 413.442 291.237 410.175 294.243L405.276 298.753L400.415 303.303C397.186 306.349 393.915 309.351 390.722 312.433L381.139 321.681C374.829 327.929 368.467 334.12 362.272 340.485C359.171 343.662 356.007 346.777 352.971 350.018L343.816 359.695C331.74 372.719 319.984 386.054 308.923 399.956L309.515 400.439L318.187 390.352L320.347 387.827L322.571 385.356L327.027 380.421L331.475 375.479C332.955 373.829 334.495 372.234 336.002 370.609C339.038 367.379 342.047 364.125 345.103 360.915C357.411 348.153 369.887 335.551 382.621 323.211C389.036 317.088 395.397 310.913 401.854 304.836L406.684 300.264L411.552 295.734C414.795 292.712 418.039 289.689 421.313 286.7C427.809 280.664 434.351 274.675 440.941 268.739C447.498 262.768 454.114 256.859 460.745 250.971L460.251 250.386Z" fill="url(#paint1_linear_117_147)"/>
<g opacity="0.5">
<path d="M451.102 301.098C451.285 301.173 451.5 301.172 451.689 301.07C474.298 289.082 481.874 273.872 484.248 263.224C486.827 251.655 484.069 243.057 483.95 242.698C483.831 242.336 483.443 242.141 483.083 242.26C482.722 242.379 482.527 242.768 482.645 243.128C482.672 243.213 485.41 251.783 482.89 262.996C480.565 273.339 473.154 288.131 451.047 299.854C450.711 300.031 450.583 300.449 450.761 300.783C450.837 300.931 450.96 301.038 451.102 301.098Z" fill="url(#paint2_linear_117_147)"/>
</g>
<path d="M61.4692 2.82538H398.474C407.664 2.82538 415.066 13.3767 414.898 26.2381L410.156 392.238C409.933 409.463 399.814 423.201 379.1 422.986L60.0306 417.38C54.7816 417.288 50.0905 414.096 48.0617 409.248C46.3758 405.217 44.8813 399.973 44.8831 394.244L45.0401 25.8079C45.0473 13.1127 52.4009 2.82538 61.4692 2.82538Z" fill="#3F496C"/>
<path d="M68.9022 12.7368H392.507C401.33 12.7368 408.438 22.762 408.279 34.9818L403.727 382.733C403.512 399.1 393.796 412.153 381.979 411.948L68.5538 406.5C59.9169 406.35 52.9731 396.605 52.9785 384.64L53.1283 34.5732C53.1337 22.5107 60.1931 12.7368 68.9022 12.7368Z" fill="#8BA1D1"/>
<path d="M407.786 64.8316H52.9766V16.3304C52.9766 13.7436 55.0704 11.6467 57.6533 11.6467H403.373C405.81 11.6467 407.786 13.6261 407.786 16.0664V64.8316Z" fill="#5C6EA0"/>
<path d="M368.259 42.1599L184.183 40.4119C179.844 40.3703 176.353 37.4998 176.351 33.9731L176.35 27.827C176.35 25.1065 179.063 22.8994 182.411 22.8994H369.576C372.878 22.8994 375.482 25.1788 375.24 27.8541L374.356 37.6082C374.125 40.1968 371.453 42.1888 368.259 42.1599Z" fill="#91B3FA"/>
<path d="M391.482 96.6156H69.263C67.1259 96.6156 65.3931 94.8874 65.3931 92.7544V82.4255C65.3931 80.2798 67.1475 78.5444 69.2973 78.5643L391.516 81.406C393.64 81.424 395.352 83.1485 395.352 85.2671V92.7544C395.353 94.8874 393.619 96.6156 391.482 96.6156Z" fill="#EEEEEE"/>
<path d="M146.268 40.6361C141.031 40.6361 136.771 36.37 136.771 31.126C136.771 25.882 141.031 21.616 146.268 21.616C151.504 21.616 155.764 25.882 155.764 31.126C155.764 36.37 151.504 40.6361 146.268 40.6361ZM146.268 22.8217C141.696 22.8217 137.974 26.5473 137.974 31.126C137.974 35.7048 141.694 39.4322 146.268 39.4322C150.841 39.4322 154.56 35.7066 154.56 31.126C154.562 26.5473 150.841 22.8217 146.268 22.8217Z" fill="#91B3FA"/>
<path d="M115.483 41.3591C110.247 41.3591 105.987 37.0931 105.987 31.8491C105.987 26.6051 110.247 22.339 115.483 22.339C120.72 22.339 124.979 26.6051 124.979 31.8491C124.979 37.0931 120.72 41.3591 115.483 41.3591ZM115.483 23.5429C110.911 23.5429 107.191 27.2685 107.191 31.8491C107.191 36.4279 110.911 40.1552 115.483 40.1552C120.055 40.1552 123.777 36.4297 123.777 31.8491C123.776 27.2685 120.055 23.5429 115.483 23.5429Z" fill="#91B3FA"/>
<path d="M85.9014 41.3591C80.6651 41.3591 76.4053 37.0931 76.4053 31.8491C76.4053 26.6051 80.6651 22.339 85.9014 22.339C91.1376 22.339 95.3974 26.6051 95.3974 31.8491C95.3974 37.0931 91.1376 41.3591 85.9014 41.3591ZM85.9014 23.5429C81.3293 23.5429 77.6074 27.2685 77.6074 31.8491C77.6074 36.4279 81.3275 40.1552 85.9014 40.1552C90.4734 40.1552 94.1935 36.4297 94.1935 31.8491C94.1935 27.2685 90.4752 23.5429 85.9014 23.5429Z" fill="#91B3FA"/>
<path opacity="0.6" d="M264.109 127.76L203.845 127.259C201.957 127.243 200.439 125.697 200.456 123.806L200.47 122.123C200.485 120.276 201.961 118.776 203.804 118.729L264.084 117.235C266.015 117.188 267.603 118.752 267.587 120.686L267.556 124.365C267.54 126.256 265.997 127.776 264.109 127.76Z" fill="white"/>
<path opacity="0.6" d="M277.097 237.426L188.373 236.687C185.375 236.662 182.965 234.209 182.988 231.205L183.727 142.21C183.752 139.262 186.117 136.87 189.06 136.82L276.675 138.484C280.386 138.555 283.348 141.604 283.316 145.321L282.57 232.034C282.547 235.039 280.095 237.452 277.097 237.426Z" fill="white"/>
<path opacity="0.6" d="M151.998 127.76L91.7351 127.259C89.8471 127.243 88.3291 125.697 88.3453 123.806L88.3598 122.123C88.3742 120.276 89.8507 118.776 91.6936 118.729L151.973 117.235C153.905 117.188 155.493 118.752 155.477 120.686L155.446 124.365C155.43 126.256 153.887 127.776 151.998 127.76Z" fill="white"/>
<path d="M164.987 237.426L76.2629 236.687C73.2648 236.662 70.8551 234.209 70.8786 231.205L71.6168 142.21C71.6421 139.262 74.0066 136.87 76.9506 136.82L164.565 138.484C168.276 138.555 171.238 141.604 171.206 145.321L170.46 232.034C170.435 235.039 167.986 237.452 164.987 237.426Z" fill="#EEEEEE"/>
<path d="M376.553 129.866L316.289 129.363C314.401 129.347 312.883 127.801 312.9 125.91L312.914 124.227C312.928 122.38 314.405 120.88 316.248 120.833L376.527 119.34C378.459 119.293 380.047 120.856 380.031 122.79L380 126.469C379.984 128.362 378.441 129.88 376.553 129.866Z" fill="#EEEEEE"/>
<path d="M389.54 239.532L300.815 238.793C297.817 238.768 295.407 236.313 295.431 233.31L296.169 144.316C296.194 141.368 298.559 138.976 301.503 138.926L389.117 140.59C392.828 140.661 395.79 143.71 395.758 147.427L395.012 234.14C394.989 237.143 392.538 239.556 389.54 239.532Z" fill="#EEEEEE"/>
<path d="M393.612 312.09C393.612 318.059 388.733 322.874 382.773 322.786L74.6455 318.261C69.5139 318.185 65.3931 313.997 65.3931 308.856V255.328C65.3931 250.102 69.6474 245.877 74.8639 245.922L384.301 248.536C389.361 248.58 393.476 252.627 393.612 257.69V312.09Z" fill="#EEEEEE"/>
<path d="M380.529 359.819L73.8567 355.871C69.1637 355.812 65.3931 351.985 65.3931 347.285V334.787C65.3931 331.58 68.0103 328.993 71.2124 329.035L387.229 333.203C391.733 333.263 395.353 336.936 395.353 341.448V345.165C395.353 353.332 388.684 359.924 380.529 359.819Z" fill="#EEEEEE"/>
<path d="M34.0512 118.166C-14.6386 180.165 -3.92233 269.953 57.9872 318.715C108.305 358.346 176.954 358.675 227.039 324.118L442.137 493.533C445.709 496.346 450.473 497.136 454.759 495.621L480.979 486.364C481.43 486.205 481.863 486.017 482.287 485.815C482.407 485.759 482.522 485.694 482.639 485.634C482.955 485.471 483.264 485.298 483.562 485.111C483.663 485.048 483.766 484.985 483.865 484.92C484.239 484.674 484.598 484.414 484.941 484.133C484.946 484.13 484.952 484.126 484.957 484.121C488.616 481.127 490.518 476.306 489.625 471.426L480.181 419.828C479.598 416.641 477.872 413.778 475.329 411.773L453.785 394.805L444.917 406.097L426.408 391.52L435.276 380.228L417.961 366.591L409.802 376.979L387.309 359.262L395.467 348.874L387.087 342.272L382.886 347.619L364.03 332.768L368.23 327.421L353.562 315.87L344.694 327.162L334.218 318.91L343.086 307.618L334.007 300.467L325.139 311.759L306.981 297.457L315.849 286.165L290.326 266.062L279.395 257.452C301.124 200.561 284.628 133.826 234.308 94.1933C172.397 45.4336 82.7391 56.1657 34.0512 118.166ZM113.711 144.117C126.247 153.991 128.418 172.174 118.557 184.728C108.699 197.282 90.5421 199.455 78.0064 189.581C65.4707 179.708 63.2993 161.527 73.16 148.973C83.0207 136.417 101.175 134.244 113.711 144.117Z" fill="#EF514E"/>
<path d="M219.634 199.513L321.601 279.825L312.733 291.117L330.892 305.42L339.76 294.127L348.839 301.278L339.971 312.571L350.447 320.823L359.315 309.53L373.982 321.083L369.782 326.43L388.639 341.282L392.839 335.935L401.22 342.536L393.061 352.925L415.555 370.642L423.714 360.253L441.029 373.892L432.161 385.184L450.669 399.761L459.537 388.469L481.082 405.437C483.625 407.44 485.351 410.305 485.934 413.492L495.377 465.09C496.554 471.52 492.888 477.854 486.731 480.026L460.512 489.283C456.225 490.796 451.464 490.008 447.89 487.196L188.234 282.681L219.634 199.513Z" fill="#EF514E"/>
<path d="M63.7433 312.376C125.653 361.137 215.309 350.403 263.997 288.404C312.686 226.405 301.97 136.615 240.061 87.8557C178.151 39.096 88.4952 49.8262 39.8073 111.827C-8.88248 173.826 1.83378 263.614 63.7433 312.376ZM83.7643 183.24C71.2286 173.367 69.0572 155.185 78.9179 142.629C88.7768 130.075 106.933 127.902 119.469 137.776C132.005 147.649 134.176 165.831 124.315 178.387C114.455 190.943 96.3 193.114 83.7643 183.24Z" fill="url(#paint3_linear_117_147)"/>
<path d="M232.796 317.779L447.893 487.194C451.465 490.008 456.229 490.797 460.516 489.282L486.735 480.025C490.69 478.629 493.592 475.509 494.868 471.758C477.798 443.687 288.575 311.233 284.563 291.004C283.135 283.807 284.68 273.654 296.081 259.72L285.149 251.11C306.878 194.22 290.382 127.485 240.062 87.8521C178.151 39.0942 88.4952 49.8262 39.8073 111.827C-8.88248 173.826 1.83378 263.616 63.7433 312.376C114.061 352.008 182.711 352.336 232.796 317.779ZM119.467 137.778C132.003 147.651 134.174 165.833 124.314 178.388C114.455 190.943 96.2982 193.115 83.7625 183.242C71.2268 173.369 69.0554 155.187 78.9161 142.631C88.7768 130.077 106.931 127.904 119.467 137.778Z" fill="url(#paint4_linear_117_147)"/>
<path d="M81.0444 290.344C130.803 329.536 202.864 320.909 241.996 271.078C281.128 221.246 272.516 149.079 222.756 109.889C172.998 70.6974 100.937 79.3253 61.8049 129.155C22.6726 178.985 31.2861 251.152 81.0444 290.344ZM83.7645 183.24C71.2288 173.367 69.0574 155.185 78.9181 142.629C88.777 130.075 106.933 127.902 119.469 137.776C132.005 147.649 134.176 165.831 124.316 178.387C114.455 190.943 96.3002 193.114 83.7645 183.24Z" fill="#EF514E"/>
<path d="M127.283 499.831C121.678 500.316 111.949 501.104 104.28 501.442C99.67 501.644 97.0166 501.192 95.4878 500.58C95.4896 500.751 95.495 500.916 95.5022 501.066C95.5383 501.874 96.1935 502.521 97.0094 502.566C111.5 503.376 123.025 502.846 127.128 502.597C127.976 502.544 128.481 501.623 128.048 500.898C127.831 500.536 127.568 500.182 127.283 499.831Z" fill="#5C6EA0"/>
<path d="M104.28 501.442C111.949 501.104 121.676 500.316 127.283 499.831C121.772 493.06 104.28 488.497 104.28 488.497H99.3396C95.9426 493.401 95.4499 498.072 95.4878 500.581C97.0166 501.194 99.6699 501.646 104.28 501.442Z" fill="#5C6EA0"/>
<path d="M98.5093 480.419L98.9714 489.58C99.0219 490.572 99.7637 491.406 100.755 491.548C101.742 491.689 103.063 491.708 104.466 491.241C105.329 490.954 105.969 490.225 106.128 489.338L107.726 480.419H98.5093Z" fill="#5C6EA0"/>
<path d="M34.3436 501.373C31.9123 501.033 30.8131 499.77 30.3528 498.418C30.3492 498.43 30.3474 498.441 30.3438 498.454C29.9864 499.88 30.8149 501.359 32.4719 502.06C34.4754 502.91 36.6649 503.054 38.3652 502.984C40.19 502.908 41.8651 502.152 42.7838 500.943L42.7982 500.925C40.968 501.832 38.3959 501.941 34.3436 501.373Z" fill="#5C6EA0"/>
<path d="M45.8036 480.361H41.7298C35.5242 480.234 31.6272 493.342 30.3511 498.418C30.8113 499.77 31.9124 501.033 34.3419 501.373C38.3959 501.939 40.9663 501.832 42.7983 500.925C46.1502 496.507 47.8126 490.035 48.6122 486.259C49.5201 481.964 45.8036 480.361 45.8036 480.361Z" fill="#5C6EA0"/>
<path d="M42.2532 471.858L39.9915 480.869C39.7135 481.973 40.2424 483.116 41.2622 483.64C42.5275 484.291 44.309 484.974 45.9462 484.775C46.7169 484.683 47.3559 484.139 47.6104 483.412L50.9316 473.931L42.2532 471.858Z" fill="#5C6EA0"/>
<path d="M39.5547 474.461C42.3687 476.961 51.5236 477.291 51.5236 477.291C84.5009 398.026 97.9914 386.766 97.9914 386.766C93.2298 416.684 97.2243 482.921 97.2243 482.921C102.666 485.325 109.682 482.921 109.682 482.921C110.125 433.94 117.642 391.225 126.523 357.549C104.235 357.046 92.3815 349.409 88.5116 346.343C69.9309 376.339 39.5547 474.461 39.5547 474.461Z" fill="#3F496C"/>
<path d="M94.17 255.187C89.9517 276.26 91.4625 313.981 92.4571 331.184C92.7368 336.02 89.3651 342.724 86.6414 347.298C86.2136 348.015 86.4771 348.934 87.219 349.315C91.7802 351.663 107.233 358.939 125.144 359.845C126.339 359.904 127.404 359.091 127.714 357.934C140.999 308.256 156.43 276.512 156.43 276.512C139.392 249.267 94.17 255.187 94.17 255.187Z" fill="#F9D946"/>
<path d="M100.242 384.89C100.054 384.89 99.8649 384.839 99.6934 384.734C99.1952 384.429 99.0382 383.78 99.3414 383.283C99.5183 382.99 103.785 376.084 112.417 371.914C112.942 371.663 113.574 371.88 113.826 372.408C114.079 372.934 113.859 373.566 113.334 373.819C105.287 377.708 101.184 384.317 101.145 384.383C100.944 384.709 100.598 384.89 100.242 384.89Z" fill="#8BA1D1"/>
<path d="M67.707 315.669C69.0626 325.486 73.0661 336.195 81.0748 347.569L84.1199 345.083C84.1199 345.083 80.6055 330.803 82.6037 314.595C77.6634 313.63 71.8278 314.626 67.707 315.669Z" fill="#F9D946"/>
<path d="M98.8813 281.19L94.1684 255.187C94.1684 255.187 62.6857 279.288 67.7072 315.669C71.828 314.626 77.6617 313.63 82.6038 314.595C84.0442 302.921 88.3419 290.246 98.8813 281.19Z" fill="#F9D946"/>
<path d="M156.428 276.512L144.275 302.723C146.241 318.547 154.728 325.389 163.881 328.013C164.451 320.801 166.272 314.975 167.962 310.944C156.267 298.852 156.428 276.512 156.428 276.512Z" fill="#F9D946"/>
<path d="M167.962 310.946C166.272 314.977 164.451 320.803 163.881 328.015C188.299 337.504 194.759 319.102 194.759 319.102L190.246 318.305C180.055 319.378 172.937 316.088 167.962 310.946Z" fill="#F9D946"/>
<path d="M145.232 244.153L139.366 265.752C138.707 268.178 136.086 269.482 133.754 268.549C131.238 267.542 128.047 266.166 125.298 264.68C122.364 263.095 121.446 259.315 123.303 256.542L135.501 238.328L145.232 244.153Z" fill="url(#paint5_linear_117_147)"/>
<path d="M205.952 304.648L55.6173 359.445C49.3124 361.743 46.2981 368.933 49.076 375.05L49.5326 376.056C51.991 381.468 58.3771 383.841 63.765 381.345L209.739 313.717L205.952 304.648Z" fill="#5C6EA0"/>
<g opacity="0.32">
<path d="M275.051 344.666C316.037 344.666 349.263 311.991 349.263 271.685C349.263 231.379 316.037 198.705 275.051 198.705C234.064 198.705 200.838 231.379 200.838 271.685C200.838 311.991 234.064 344.666 275.051 344.666Z" fill="#BDD0FB"/>
</g>
<path d="M275.051 190.478C229.444 190.478 192.472 226.835 192.472 271.685C192.472 316.535 229.444 352.894 275.051 352.894C320.658 352.894 357.629 316.537 357.629 271.685C357.629 226.835 320.658 190.478 275.051 190.478ZM275.051 340.965C236.144 340.965 204.604 309.948 204.604 271.687C204.604 233.426 236.144 202.409 275.051 202.409C313.957 202.409 345.498 233.426 345.498 271.687C345.5 309.948 313.959 340.965 275.051 340.965Z" fill="#5C6EA0"/>
<path d="M198.752 281.747C198.475 281.747 198.237 281.542 198.201 281.26C197.954 279.324 197.782 277.367 197.687 275.438C197.672 275.132 197.909 274.87 198.214 274.856C198.578 274.834 198.782 275.076 198.797 275.384C198.889 277.283 199.06 279.214 199.302 281.121C199.34 281.425 199.125 281.703 198.822 281.741C198.799 281.745 198.773 281.747 198.752 281.747ZM199.318 259.039C199.286 259.039 199.253 259.035 199.221 259.03C198.919 258.976 198.719 258.688 198.773 258.386C199.71 253.16 201.208 248.023 203.228 243.117L203.23 243.115C215.134 214.194 243.328 195.507 275.054 195.507C289.848 195.507 304.228 199.623 316.645 207.41C316.905 207.573 316.982 207.917 316.82 208.177C316.659 208.439 316.316 208.515 316.055 208.354C303.817 200.677 289.639 196.62 275.054 196.62C243.779 196.62 215.988 215.039 204.257 243.542C204.255 243.544 204.255 243.544 204.255 243.545C202.264 248.379 200.788 253.439 199.867 258.585C199.815 258.849 199.582 259.039 199.318 259.039Z" fill="#91B3FA"/>
<path d="M158.067 227.743C158.121 228.113 153.174 252.39 153.174 252.39L139.393 249.267L140.667 225.559C140.667 225.559 157.172 221.532 158.067 227.743Z" fill="url(#paint6_linear_117_147)"/>
<path d="M143.766 230.843L142.118 243.271C142.096 243.43 142.096 243.587 142.12 243.746C142.259 244.72 142.983 248.036 146.326 247.088C149.358 246.228 152.139 245.489 154.06 246.076C154.923 246.34 155.443 247.215 155.262 248.101C154.813 250.306 153.706 255.257 152.091 259.413C151.762 260.255 150.842 260.698 149.973 260.445C147.36 259.682 141.892 257.918 137.826 255.467C137.275 255.134 136.947 254.534 136.974 253.891C137.106 250.752 137.472 241.217 137.163 238.544C136.875 236.035 133.799 234.531 132.463 233.992C132.025 233.815 131.682 233.469 131.507 233.03C130.887 231.477 130.035 227.886 134.555 226.412C135.501 226.105 136.001 225.082 135.663 224.146C134.994 222.278 134.712 219.429 138.208 217.86C141.763 216.264 144.418 218.162 145.853 219.704C146.432 220.328 147.362 220.424 148.082 219.968C148.492 219.71 149.019 219.625 149.656 220.022C150.515 220.557 151.652 220.192 152.094 219.283C152.946 217.533 154.681 215.659 158.161 216.255C164.336 217.314 165.036 224.167 163.406 228.184C161.776 232.2 155.147 230.671 151.82 228.647C149.291 227.107 146.01 228.721 144.584 229.583C144.136 229.854 143.836 230.319 143.766 230.843Z" fill="#3F496C"/>
<path d="M136.609 243.074C136.609 243.074 139.149 235.953 136.539 234.211C133.931 232.466 130.068 233.372 130.918 238.531C131.978 244.946 136.609 243.074 136.609 243.074Z" fill="url(#paint7_linear_117_147)"/>
<path d="M82.8657 344.651L97.0783 343.491L103.233 349.172C103.233 349.172 101.777 351.188 97.2245 350.029C92.6723 348.87 86.436 348.587 86.436 348.587C86.436 348.587 80.151 351.425 80.0752 346.115L82.8657 344.651Z" fill="url(#paint8_linear_117_147)"/>
<path d="M192.951 322.468C194.18 323.429 198.391 321.421 200.967 320.035C202.223 319.358 202.831 317.887 202.4 316.526C201.779 314.568 200.746 312.039 199.474 311.721C197.36 311.191 187.886 318.505 192.951 322.468Z" fill="url(#paint9_linear_117_147)"/>
<path d="M58.583 379.237C58.5234 379.237 58.462 379.228 58.4007 379.206C52.529 377.173 51.1626 373.698 51.0507 371.141C50.8901 367.404 53.2348 363.935 56.8827 362.511L74.9344 355.461C75.2142 355.349 75.5391 355.49 75.651 355.777C75.7629 356.063 75.6221 356.386 75.3351 356.497L57.2834 363.545C54.0777 364.797 52.0182 367.829 52.159 371.092C52.298 374.309 54.5199 376.686 58.7635 378.154C59.0523 378.255 59.2057 378.57 59.1046 378.861C59.027 379.092 58.814 379.237 58.583 379.237Z" fill="#91B3FA"/>
<path d="M80.6977 354.364C80.4757 354.364 80.2663 354.23 80.1815 354.011C80.0696 353.724 80.2104 353.402 80.4974 353.292L82.8384 352.379C83.1182 352.267 83.4449 352.41 83.5568 352.695C83.6687 352.983 83.5279 353.304 83.241 353.415L80.8999 354.328C80.8331 354.351 80.7645 354.364 80.6977 354.364Z" fill="#91B3FA"/>
</g>
<defs>
<linearGradient id="paint0_linear_117_147" x1="548.989" y1="633.083" x2="113.902" y2="93.5274" gradientUnits="userSpaceOnUse">
<stop stop-color="#DAE3FE"/>
<stop offset="1" stop-color="#E9EFFD"/>
</linearGradient>
<linearGradient id="paint1_linear_117_147" x1="308.922" y1="325.411" x2="460.744" y2="325.411" gradientUnits="userSpaceOnUse">
<stop stop-color="#DAE3FE"/>
<stop offset="1" stop-color="#E9EFFD"/>
</linearGradient>
<linearGradient id="paint2_linear_117_147" x1="450.68" y1="271.687" x2="485.345" y2="271.687" gradientUnits="userSpaceOnUse">
<stop stop-color="#DAE3FE"/>
<stop offset="1" stop-color="#E9EFFD"/>
</linearGradient>
<linearGradient id="paint3_linear_117_147" x1="76.7992" y1="51.7794" x2="415.685" y2="719.15" gradientUnits="userSpaceOnUse">
<stop stop-color="#FF9085"/>
<stop offset="1" stop-color="#FB6FBB"/>
</linearGradient>
<linearGradient id="paint4_linear_117_147" x1="31.954" y1="456.698" x2="378.838" y2="211.35" gradientUnits="userSpaceOnUse">
<stop stop-color="#FF928E"/>
<stop offset="1" stop-color="#FE7062"/>
</linearGradient>
<linearGradient id="paint5_linear_117_147" x1="110.695" y1="281.248" x2="145.642" y2="243.645" gradientUnits="userSpaceOnUse">
<stop stop-color="#FEBBBA"/>
<stop offset="1" stop-color="#FF928E"/>
</linearGradient>
<linearGradient id="paint6_linear_117_147" x1="152.577" y1="228.702" x2="129.796" y2="269.951" gradientUnits="userSpaceOnUse">
<stop stop-color="#FEBBBA"/>
<stop offset="1" stop-color="#FF928E"/>
</linearGradient>
<linearGradient id="paint7_linear_117_147" x1="130.024" y1="244.389" x2="149.258" y2="218.008" gradientUnits="userSpaceOnUse">
<stop stop-color="#FEBBBA"/>
<stop offset="1" stop-color="#FF928E"/>
</linearGradient>
<linearGradient id="paint8_linear_117_147" x1="105.863" y1="335.06" x2="66.603" y2="369.775" gradientUnits="userSpaceOnUse">
<stop stop-color="#FEBBBA"/>
<stop offset="1" stop-color="#FF928E"/>
</linearGradient>
<linearGradient id="paint9_linear_117_147" x1="196.292" y1="317.206" x2="207.35" y2="317.206" gradientUnits="userSpaceOnUse">
<stop stop-color="#FEBBBA"/>
<stop offset="1" stop-color="#FF928E"/>
</linearGradient>
<clipPath id="clip0_117_147">
<rect width="499" height="503" fill="white"/>
</clipPath>
</defs>
</svg>
